<?xml version="1.0" encoding="UTF-8" standalone="no"?>
<svg width="40" height="60" viewBox="0 0 40.000000 60.000000" preserveAspectRatio="xMidYMid meet" id="svg830" xmlns="http://www.w3.org/2000/svg">
  <g style="transform: translate(-12px, 0px)">
    <path
       style="fill:#7efca0;fill-opacity:0.666667;stroke-width:3.57165;stroke-linecap:round;stroke-linejoin:round"
       d="M 18.060547,8.6015625 V 44.667969 l 7.298828,-6.529297 a 1.7860054,1.7860054 0 0 1 2.830078,0.625 L 34.988281,54.580078 39.066406,52.84375 32.277344,37.125 a 1.7860054,1.7860054 0 0 1 1.634765,-2.494141 l 9.759766,-0.02148 z"/>
    <path
       style="fill:#0ea83a;fill-opacity:0.7;stroke-linecap:round;stroke-linejoin:round"
       d="M 15.597656,2.5898438 A 1.7860054,1.7860054 0 0 0 14.488281,4.2421875 V 48.660156 a 1.7860054,1.7860054 0 0 0 2.976563,1.332031 L 25.888672,42.457031 32.410156,57.625 A 1.7860054,1.7860054 0 0 0 34.75,58.5625 l 7.367187,-3.134766 a 1.7860054,1.7860054 0 0 0 0.941407,-2.351562 l -6.427735,-14.878906 11.300782,-0.02539 a 1.7860054,1.7860054 0 0 0 1.267578,-3.039063 L 17.546875,2.9902344 A 1.7860054,1.7860054 0 0 0 15.597656,2.5898438 Z m 2.462891,6.0117187 25.611328,26.0078125 -9.759766,0.02148 A 1.7860054,1.7860054 0 0 0 32.277344,37.125 l 6.789062,15.71875 -4.078125,1.736328 -6.798828,-15.816406 a 1.7860054,1.7860054 0 0 0 -2.830078,-0.625 l -7.298828,6.529297 z"/>
  </g>
</svg>
