<?xml version="1.0" standalone="no"?>
<svg version="1.0" xmlns="http://www.w3.org/2000/svg"
 width="60" height="60" viewBox="0 0 60.000000 60.000000"
 preserveAspectRatio="xMidYMid meet">

<g transform="translate(0.000000,60.000000) scale(0.100000,-0.100000)"
fill="#000000" stroke="none">
<path d="M79 578 c-20 -11 -46 -38 -58 -58 -62 -112 30 -238 162 -222 24 3 28
7 23 25 -4 12 -9 37 -13 55 -5 27 -3 32 14 32 16 0 239 -79 356 -125 9 -4 17
-14 17 -22 0 -12 -22 -25 -84 -47 -38 -13 -5 -18 39 -6 53 15 69 31 61 63 -5
21 -31 34 -186 91 -100 36 -192 66 -206 66 -31 0 -40 -23 -27 -71 8 -32 7 -39
-6 -42 -55 -11 -132 40 -147 98 -23 93 69 184 163 161 38 -10 93 -69 93 -99 0
-14 5 -29 10 -32 19 -12 10 52 -13 86 -44 67 -130 87 -198 47z"/>
<path d="M230 219 c0 -7 16 -56 37 -111 30 -81 40 -99 60 -105 32 -7 47 9 68
77 9 30 24 66 32 78 8 13 12 26 9 30 -12 12 -34 -24 -56 -91 -22 -68 -44 -92
-61 -66 -4 8 -23 53 -40 102 -29 81 -49 116 -49 86z"/>
</g>
</svg>
